<?xml version="1.0" encoding="UTF-8"?>
<svg width="921px" height="909px" viewBox="0 0 921 909" version="1.1" xmlns="http://www.w3.org/2000/svg" xmlns:xlink="http://www.w3.org/1999/xlink">
    <title>Untitled</title>
    <g id="Page-1" stroke="none" stroke-width="1" fill="none" fill-rule="evenodd">
        <path d="M460,141.499932 C513.150567,141.499932 616.296102,150.171469 692.910927,187.250316 C781.488991,230.118944 841.560136,303.883002 858.845164,333.26755 C898.587139,400.828907 917.500629,464.515594 917.500629,528.5 C917.500629,632.836686 866.323717,727.263559 783.675881,795.627599 C700.839904,864.147265 586.396196,906.5 460,906.5 C333.603751,906.5 219.160157,864.14739 136.324329,795.627754 C53.67671,727.2638 2.5,632.836962 2.5,528.5 C2.5,440.287604 27.5281589,355.020984 88.8096827,290.724833 C118.279815,259.804974 156.728475,226.605593 198.146901,205.2214 C274.528879,165.785644 365.401693,141.499932 460,141.499932 Z" id="Oval" stroke="#000000" stroke-width="5" fill="#EFE5DC"></path>
        <g id="Group" transform="translate(44.557509, 0.692470)">
            <path d="M143.176514,79.7506168 C155.198572,69.7405274 170.082381,65.2930579 184.629261,66.2071996 C199.176141,67.1213414 213.386091,73.3970945 224.06043,84.8334502 C235.432524,97.0173713 246.048933,110.913635 255.912515,126.520015 C276.913546,159.748312 288.164637,188.657652 289.528334,213.276504 C226.877862,222.827694 179.893158,227.408261 148.57347,227.000022 C117.565782,226.595849 77.7771349,224.192154 29.2087039,219.789277 C57.4978397,167.904266 85.1049025,130.095177 112.07617,106.402367 C122.604102,97.1541437 132.54686,88.6237254 141.903492,80.8120222 L141.903492,80.8120222 Z" id="Triangle" stroke="#000000" stroke-width="4" fill="#EFE5DC" transform="translate(158.809444, 138.012505) rotate(-24.000000) translate(-158.809444, -138.012505) "></path>
            <path d="M229.156542,114.691363 C232.451808,119.124925 235.647128,123.784727 238.7425,128.670767 C254.790975,154.003255 263.157703,175.972484 263.842687,194.578454 C216.844724,201.763025 181.65394,205.203272 158.270334,204.899193 C134.886728,204.595115 104.744179,202.756608 67.8426869,199.383672 C89.1964373,159.981562 110.043626,131.36746 130.384253,113.541367 C133.830081,110.521517 137.191066,107.605503 140.467209,104.793327 L140.467209,104.793327 C166.03045,82.8503477 204.541851,85.7851505 226.48483,111.348392 C227.414226,112.431124 228.305345,113.546134 229.156542,114.691363 Z" id="Triangle-Copy-2" fill="#FCA4A6" transform="translate(165.842687, 137.917714) rotate(-24.000000) translate(-165.842687, -137.917714) "></path>
        </g>
        <g id="Group-2" transform="translate(580.666776, 7.607509)">
            <path d="M143.944356,85.6466502 C155.988067,75.1030199 171.137211,70.323551 185.985335,71.1244919 C200.833459,71.9254328 215.380564,78.3067834 226.220196,90.0847922 C237.155101,101.966322 247.385016,115.445394 256.912515,130.520015 C277.913546,163.748312 289.164637,192.657652 290.528334,217.276504 C227.877862,226.827694 180.893158,231.408261 149.57347,231.000022 C118.629529,230.59668 78.9406942,228.202028 30.508238,223.813888 C70.0631454,163.809566 102.461319,122.519222 127.737892,99.9762117 C133.110152,95.1849414 138.174235,90.7045898 142.929624,86.5356229 L142.929624,86.5356229 Z" id="Triangle-Copy" stroke="#111111" stroke-width="4" fill="#EFE5DC" transform="translate(159.809444, 142.012505) scale(-1, 1) rotate(-27.000000) translate(-159.809444, -142.012505) "></path>
            <path d="M215.757958,115.366653 C218.996853,119.749448 222.139437,124.350762 225.185711,129.170594 C241.316065,154.69213 249.725481,176.825309 250.41396,195.570129 C203.176212,202.808317 167.805883,206.274237 144.302972,205.967889 C120.800062,205.661542 90.5037246,203.809314 53.4139595,200.411208 C83.4674091,154.637746 108.042869,123.235028 127.140339,106.203055 C127.140339,106.203055 127.140339,106.203055 127.140339,106.203055 C151.991097,84.0400436 190.103287,86.2188926 212.266298,111.06965 C213.495364,112.447767 214.660468,113.88162 215.757927,115.366676 Z" id="Triangle-Copy-3" fill="#FCA4A6" transform="translate(151.913960, 138.486548) scale(-1, 1) rotate(-27.000000) translate(-151.913960, -138.486548) "></path>
        </g>
        <ellipse id="Oval" stroke="#000000" fill="#000000" transform="translate(231.260495, 366.646544) rotate(50.000000) translate(-231.260495, -366.646544) " cx="231.260495" cy="366.646544" rx="37.5" ry="56"></ellipse>
        <circle id="Oval" fill="#D8D8D8" cx="257.5" cy="340.5" r="14.5"></circle>
        <ellipse id="Oval" stroke="#000000" fill="#000000" transform="translate(701.260495, 366.646544) scale(1, -1) rotate(50.000000) translate(-701.260495, -366.646544) " cx="701.260495" cy="366.646544" rx="37.5" ry="56"></ellipse>
        <circle id="Oval" fill="#D8D8D8" cx="679.5" cy="340.5" r="14.5"></circle>
        <path d="M461,372.5 C466.013077,372.5 470.565785,373.684384 473.855896,375.658451 C476.560803,377.281395 478.5,379.442913 478.5,382 C478.5,382.862908 478.001036,383.542344 477.371685,384.171695 C475.994318,385.549062 473.911978,386.667697 471.813247,387.799632 C471.494292,387.971658 471.177109,388.145105 470.860261,388.318384 C468.001796,389.88163 465.187898,391.5 461,391.5 C457.103448,391.5 454.182227,389.88651 451.409825,388.434428 C450.982674,388.210702 450.558882,387.98879 450.136293,387.773155 C447.966763,386.666108 445.945202,385.613526 444.617667,384.285992 C443.969913,383.638237 443.5,382.921267 443.5,382 C443.5,379.442913 445.439197,377.281395 448.144104,375.658451 C451.434215,373.684384 455.986923,372.5 461,372.5 Z" id="Oval" stroke="#161515" stroke-width="5" fill="#FCA4A6"></path>
        <path d="M460,394 C459.761816,398.190299 460.09515,401.190299 461,403 C462,405 464.575542,407.42878 468,409 C472.049744,410.858116 476.886014,411 479,411 C482.441647,411 489.368597,410.984858 493,407 C495.420935,404.343428 497.087602,401.676761 498,399" id="Line" stroke="#000000" stroke-width="6" stroke-linecap="round"></path>
        <path d="M422,394 C421.761816,398.190299 422.09515,401.190299 423,403 C424,405 426.575542,407.42878 430,409 C434.049744,410.858116 438.886014,411 441,411 C444.441647,411 451.368597,410.984858 455,407 C457.420935,404.343428 459.087602,401.676761 460,399" id="Line-Copy" stroke="#000000" stroke-width="6" stroke-linecap="round" transform="translate(440.962776, 402.500000) scale(-1, 1) translate(-440.962776, -402.500000) "></path>
        <g id="Group-3" transform="translate(99.314430, 441.629692)" fill-rule="nonzero">
            <path d="M10.5138573,4.98540834 C14.0723671,3.11310817 20.4629379,1.93210764 29.6855697,1.44240673 C38.1953961,0.990554176 45.2719773,0.884826664 50.9153133,1.12522419 C53.3983398,1.23100236 55.3254846,3.32963933 55.2197115,5.81266607 C55.2157737,5.90510467 55.208986,5.99739984 55.1993581,6.08941996 L55.1800369,6.27408402 C54.9214175,8.74587338 52.7079831,10.5400012 50.2361939,10.2813807 C50.1712112,10.2745816 50.1063843,10.2663681 50.0417593,10.256746 C42.6711138,9.15931645 36.2190506,8.61060168 30.6855697,8.61060168 C24.5160698,8.61060168 17.775629,8.95165301 10.4642473,9.63375566 C9.5692884,9.71720419 8.77609962,9.0593847 8.69260637,8.16442999 C8.6879178,8.11417374 8.68556971,8.06372658 8.68556971,8.0132521 C8.68556971,6.74280264 9.38953143,5.57695989 10.5138573,4.98540834 Z" id="Rectangle" fill="#000000" transform="translate(32.185570, 6.000000) rotate(2.000000) translate(-32.185570, -6.000000) "></path>
            <path d="M6.69280221,19.1871434 C11.0117546,17.063292 18.0093438,15.7910135 27.6855697,15.3703081 C36.4753108,14.9881454 43.2544348,15.1014773 48.0229416,15.7103036 C50.116747,15.9776446 51.6855697,17.7595044 51.6855697,19.8703081 C51.6855697,21.5326744 50.3379555,22.8802887 48.6755891,22.8802887 C48.5660814,22.8802887 48.4566553,22.8743126 48.3478002,22.8623748 C45.3534001,22.5343303 41.4659899,22.3703081 36.6855697,22.3703081 C27.7063383,22.3703081 18.727107,22.3703081 9.74787561,22.3703081 C9.04927268,22.3703081 8.36026389,22.2076551 7.73541443,21.8952304 L6.68556971,21.3703081 C6.08369189,21.0693692 5.8397327,20.3374916 6.14067161,19.7356138 C6.25980584,19.4973453 6.45374468,19.3046862 6.69280221,19.1871434 Z" id="Rectangle-Copy" fill="#0D0D0D"></path>
            <path d="M4.28904387,35.2059568 C6.88624873,33.714236 9.08932643,32.8375892 10.898277,32.5760164 C14.8577101,32.0034855 20.3744793,31.675974 26.1520773,31.4264181 C35.3633347,31.0285496 42.2885576,31.3718853 46.9277459,32.4564251 C48.7038885,32.8716662 49.9601283,34.4554586 49.9601283,36.2794948 C49.9601283,37.7777956 48.7455156,38.9924083 47.2472148,38.9924083 C47.1961476,38.9924083 47.1450906,38.9909664 47.0941053,38.9880749 C39.3971476,38.5529845 32.5117993,38.3354393 26.4380604,38.3354393 C20.0929081,38.3354393 12.2973276,38.5424028 3.05131904,38.9563299 C2.50404947,38.9807616 2.04054102,38.5569757 2.01604089,38.0097092 C2.00581031,37.7811858 2.07488019,37.55615 2.21155244,37.3727152 L2.92175869,36.4195114 C3.28968515,35.9257012 3.75504831,35.5126604 4.28904387,35.2059568 Z" id="Rectangle-Copy-2" fill="#000000" transform="translate(25.460128, 35.212029) rotate(-7.000000) translate(-25.460128, -35.212029) "></path>
        </g>
        <g id="Group-4" transform="translate(754.000000, 426.000000)">
            <path d="M2.50944864,2.18107445 C7.64324119,0.727024816 14.473425,0 23,0 C31.6592762,0 38.319004,0.499887097 42.9791835,1.49966129 C44.1579616,1.75255423 45,2.79439941 45,4 C45,5.11864995 44.1195191,6.03913248 43.0019724,6.08880123 L2.49753452,7.88899847 C1.1781271,7.9476388 0.0609986704,6.92558513 0.00235834062,5.60617771 C0.000786307403,5.57080696 4.33594334e-18,5.53540566 0,5.5 C-6.33059501e-16,3.95694047 1.02479224,2.60158373 2.50944864,2.18107445 Z" id="Rectangle" fill="#060606"></path>
            <path d="M4.14255178,15.7286155 C9.39682771,14.2640161 16.397774,13.5317164 25.1453908,13.5317164 C34.0256156,13.5317164 40.848665,14.0348299 45.6145389,15.0410571 C46.791819,15.2895862 47.6342797,16.3284893 47.6342797,17.5317164 C47.6342797,18.6500667 46.7534621,19.5700128 45.6361673,19.6185908 L4.13192006,21.4231233 C2.81118248,21.4805467 1.69396228,20.4564282 1.63653891,19.1356906 C1.63503292,19.101053 1.63427967,19.0663867 1.63427967,19.0317164 C1.63427967,17.4925277 2.65989439,16.1419297 4.14255178,15.7286155 Z" id="Rectangle-Copy-3" fill="#060606" transform="translate(24.634280, 17.531716) rotate(3.000000) translate(-24.634280, -17.531716) "></path>
            <path d="M2.77196938,31.1608488 C4.67130273,30.1052716 6.32338359,29.472204 7.72821195,29.261646 C12.6691236,28.5210938 20.2447489,28.933837 26.7516854,28.933837 C35.7158833,28.933837 42.7719952,29.5454201 47.920021,30.7685862 C49.0795818,31.0441225 49.82312,32.1760907 49.6154154,33.3497006 C49.4057309,34.5344971 48.3973534,35.4121304 47.1949573,35.4563333 C27.7255493,36.1719744 15.3977754,36.3882237 10.2116354,36.1050814 C7.39906312,35.9515262 5.31070309,35.6555579 3.94655529,35.2171764 C2.82415273,34.8565026 2.03433499,33.8489339 1.95209707,32.6728769 C1.90871257,32.0524497 2.22834419,31.462981 2.77196938,31.1608488 Z" id="Rectangle-Copy-4" fill="#000000" transform="translate(25.928513, 32.522319) rotate(4.000000) translate(-25.928513, -32.522319) "></path>
        </g>
    </g>
</svg>